<svg width="606" height="766" viewBox="0 0 606 766" fill="none" xmlns="http://www.w3.org/2000/svg">
<g opacity="0.3">
<path opacity="0.3" d="M605.768 727.812V716.418L603.374 714.664C602.693 720.03 597.848 723.59 593.782 724.328L566.21 745.411L554.185 751.082L515.756 725.167L516.651 724.506C513.363 722.497 511.592 717.919 509.821 713.723L507.233 715.732L505.696 716.317V727.99C505.798 729.317 506.164 730.586 506.758 731.67C507.352 732.755 508.154 733.617 509.082 734.17L547.628 763.214C550.163 764.882 552.962 765.751 555.8 765.751C558.638 765.751 561.437 764.882 563.972 763.214L602.46 734.17C603.371 733.624 604.16 732.78 604.75 731.72C605.339 730.66 605.71 729.419 605.826 728.117C605.836 728.016 605.836 727.913 605.826 727.812H605.768Z" fill="url(#paint0_linear)"/>
<path opacity="0.3" d="M593.781 724.328L566.209 745.411L555.741 750.345V765.757C558.586 765.833 561.4 764.958 563.913 763.214L602.401 734.17C603.312 733.624 604.101 732.78 604.691 731.72C605.28 730.66 605.651 729.419 605.767 728.117C605.777 728.016 605.777 727.914 605.767 727.812V727.812V716.419L603.568 714.816H603.335C602.595 720.106 597.809 723.489 593.781 724.328Z" fill="#0F054C"/>
<path opacity="0.3" d="M547.628 751.617L509.141 722.573C504.627 719.191 504.627 713.646 509.141 710.238L547.628 681.195C550.163 679.527 552.962 678.658 555.801 678.658C558.639 678.658 561.438 679.527 563.973 681.195L602.46 710.238C606.955 713.646 606.955 719.191 602.46 722.573L563.973 751.617C561.44 753.296 558.641 754.172 555.801 754.172C552.961 754.172 550.161 753.296 547.628 751.617Z" fill="url(#paint1_linear)"/>
<g opacity="0.3">
<path opacity="0.3" d="M547.628 751.617L509.141 722.573C504.627 719.191 504.627 713.646 509.141 710.238L547.628 681.195C550.163 679.527 552.962 678.658 555.801 678.658C558.639 678.658 561.438 679.527 563.973 681.195L602.46 710.238C606.955 713.646 606.955 719.191 602.46 722.573L563.973 751.617C561.44 753.296 558.641 754.172 555.801 754.172C552.961 754.172 550.161 753.296 547.628 751.617Z" fill="#0F054C"/>
</g>
</g>
<path d="M555.741 714.918C553.214 714.978 550.717 714.199 548.483 712.654L509.996 683.611C509.087 683.194 508.3 682.418 507.743 681.391C507.185 680.363 506.886 679.135 506.886 677.876C506.886 676.617 507.185 675.389 507.743 674.361C508.3 673.334 509.087 672.558 509.996 672.141L548.483 643.098C550.732 641.617 553.214 640.846 555.731 640.846C558.249 640.846 560.731 641.617 562.98 643.098L601.486 672.141C602.395 672.558 603.183 673.334 603.74 674.361C604.297 675.389 604.596 676.617 604.596 677.876C604.596 679.135 604.297 680.363 603.74 681.391C603.183 682.418 602.395 683.194 601.486 683.611L562.999 712.654C560.765 714.199 558.268 714.978 555.741 714.918ZM555.741 641.724C553.331 641.661 550.948 642.396 548.814 643.86L510.327 672.904C509.528 673.251 508.832 673.918 508.34 674.81C507.847 675.703 507.582 676.775 507.582 677.876C507.582 678.977 507.847 680.049 508.34 680.942C508.832 681.834 509.528 682.501 510.327 682.848L548.814 711.892C550.959 713.309 553.328 714.047 555.731 714.047C558.135 714.047 560.504 713.309 562.649 711.892L601.136 682.797C601.935 682.45 602.631 681.783 603.123 680.891C603.616 679.998 603.881 678.926 603.881 677.825C603.881 676.725 603.616 675.652 603.123 674.759C602.631 673.867 601.935 673.2 601.136 672.853L562.649 643.81C560.517 642.366 558.141 641.648 555.741 641.724V641.724Z" fill="#42E8E0"/>
<path opacity="0.4" d="M605.768 666.724V649.506L603.374 647.752C602.693 653.143 597.848 656.678 593.782 657.416L566.21 678.499L554.185 684.17L515.756 658.255L516.651 657.594C513.363 655.585 511.592 651.007 509.821 646.811L507.233 648.82L505.696 649.405V666.902C505.798 668.229 506.164 669.498 506.758 670.582C507.352 671.667 508.154 672.528 509.082 673.082L547.628 702.125C550.16 703.805 552.96 704.681 555.8 704.681C558.64 704.681 561.44 703.805 563.972 702.125L602.46 673.082C603.371 672.536 604.16 671.692 604.75 670.632C605.339 669.572 605.71 668.331 605.826 667.029C605.836 666.928 605.836 666.825 605.826 666.724H605.768Z" fill="#42E8E0"/>
<path d="M605.768 651.414V640.02L603.374 638.265C602.693 643.657 597.848 647.192 593.782 647.93L566.21 669.013L554.185 674.684L515.756 648.769L516.651 648.108C513.363 646.099 511.592 641.521 509.821 637.324L507.233 639.359L505.696 639.919V651.592C505.798 652.919 506.164 654.188 506.758 655.272C507.352 656.357 508.154 657.218 509.082 657.772L547.628 686.815C550.16 688.495 552.96 689.371 555.8 689.371C558.64 689.371 561.44 688.495 563.972 686.815L602.46 657.772C603.371 657.226 604.16 656.382 604.75 655.322C605.339 654.262 605.71 653.021 605.826 651.719C605.836 651.618 605.836 651.515 605.826 651.414H605.768Z" fill="url(#paint2_linear)"/>
<path opacity="0.3" d="M593.781 647.929L566.209 669.012L555.741 673.946V689.358C558.586 689.435 561.4 688.559 563.913 686.815L602.401 657.771C603.313 657.225 604.101 656.381 604.691 655.321C605.28 654.261 605.651 653.02 605.767 651.718C605.777 651.617 605.777 651.515 605.767 651.413V651.413V640.02L603.568 638.417H603.335C602.595 643.707 597.809 647.192 593.781 647.929Z" fill="#0F054C"/>
<path d="M547.628 675.167L509.141 646.123C504.627 642.715 504.627 637.171 509.141 633.789L547.628 604.821C550.161 603.141 552.961 602.266 555.801 602.266C558.641 602.266 561.441 603.141 563.973 604.821L602.46 633.865C606.955 637.247 606.955 642.792 602.46 646.199L563.915 675.167C561.387 676.822 558.599 677.685 555.772 677.685C552.944 677.685 550.156 676.822 547.628 675.167V675.167Z" fill="url(#paint3_linear)"/>
<path d="M602.401 646.2L563.913 675.168C561.378 676.836 558.579 677.705 555.741 677.705C552.902 677.705 550.104 676.836 547.568 675.168L509.081 646.124C508.241 645.607 507.503 644.845 506.923 643.897C506.343 642.949 505.936 641.841 505.734 640.656C505.462 643.199 506.59 645.743 509.081 647.523L547.627 676.643C550.159 678.323 552.959 679.198 555.799 679.198C558.639 679.198 561.439 678.323 563.971 676.643L602.459 647.599C603.487 647.041 604.358 646.082 604.953 644.853C605.548 643.624 605.839 642.185 605.786 640.733C605.579 641.921 605.166 643.032 604.579 643.98C603.992 644.928 603.247 645.687 602.401 646.2V646.2Z" fill="white"/>
<path d="M536.414 638.661L448.868 570.219L421.035 591.196H420.712L366.501 549.453L366.825 548.393L421.035 589.925L448.868 568.947L449.516 569.371L536.737 637.602L536.414 638.661Z" fill="url(#paint4_linear)"/>
<g opacity="0.3">
<path opacity="0.3" d="M101.133 726.579V715.186L98.7189 713.431C98.0376 718.823 93.1903 722.358 89.1412 723.095L61.537 744.178L49.5063 749.85L11.0589 723.934L11.9544 723.273C8.66452 721.264 6.89301 716.686 5.12151 712.49L2.53242 714.525L0.994507 715.084V726.757C1.09641 728.084 1.46276 729.353 2.05709 730.438C2.65142 731.522 3.45295 732.384 4.38175 732.937L42.8875 761.981C45.4212 763.661 48.2224 764.536 51.0637 764.536C53.905 764.536 56.7062 763.661 59.2398 761.981L97.7456 732.937C98.6613 732.395 99.4542 731.553 100.048 730.492C100.641 729.432 101.015 728.189 101.133 726.885C101.133 726.885 101.133 726.681 101.133 726.579V726.579Z" fill="url(#paint5_linear)"/>
<path opacity="0.3" d="M89.1407 723.145L61.5364 744.228L51.0631 749.162V764.574C53.9099 764.651 56.7243 763.775 59.2392 762.031L97.7451 732.987C98.6608 732.445 99.4537 731.602 100.047 730.542C100.641 729.482 101.014 728.239 101.132 726.934C101.132 726.934 101.132 726.731 101.132 726.629V715.236L98.9131 713.634H98.6795C97.9398 718.873 93.1509 722.357 89.1407 723.145Z" fill="#0F054C"/>
<path opacity="0.3" d="M42.8875 750.409L4.38171 721.365C-0.134642 717.958 -0.134642 712.413 4.38171 709.031L42.8875 679.911C45.4212 678.231 48.2224 677.356 51.0637 677.356C53.905 677.356 56.7062 678.231 59.2398 679.911L97.7456 708.955C102.243 712.337 102.243 717.881 97.7456 721.289L59.2398 750.409C56.7035 752.077 53.9033 752.946 51.0637 752.946C48.2241 752.946 45.4239 752.077 42.8875 750.409V750.409Z" fill="url(#paint6_linear)"/>
<g opacity="0.3">
<path opacity="0.3" d="M42.8879 750.409L4.38212 721.365C-0.134228 717.957 -0.134228 712.413 4.38212 709.031L42.8879 679.911C45.4216 678.231 48.2228 677.355 51.0641 677.355C53.9054 677.355 56.7066 678.231 59.2402 679.911L97.746 708.954C102.243 712.337 102.243 717.881 97.746 721.289L59.2402 750.409C56.7039 752.077 53.9038 752.946 51.0641 752.946C48.2245 752.946 45.4243 752.077 42.8879 750.409V750.409Z" fill="#0F054C"/>
</g>
</g>
<path d="M51.0636 708.141C48.5346 708.213 46.034 707.434 43.8024 705.878L5.29662 676.834C4.39393 676.412 3.61322 675.635 3.06125 674.611C2.50928 673.587 2.21301 672.365 2.21301 671.112C2.21301 669.859 2.50928 668.637 3.06125 667.613C3.61322 666.589 4.39393 665.812 5.29662 665.39L43.8024 636.346C46.0524 634.854 48.5402 634.076 51.0636 634.076C53.587 634.076 56.0747 634.854 58.3248 636.346L96.8305 665.39C97.7332 665.812 98.514 666.589 99.0659 667.613C99.6179 668.637 99.9142 669.859 99.9142 671.112C99.9142 672.365 99.6179 673.587 99.0659 674.611C98.514 675.635 97.7332 676.412 96.8305 676.834L58.3248 705.878C56.0932 707.434 53.5926 708.213 51.0636 708.141ZM44.1333 705.115C46.279 706.532 48.6496 707.27 51.0539 707.27C53.4581 707.27 55.8287 706.532 57.9744 705.115L96.4801 676.071C97.3403 675.815 98.1084 675.185 98.6586 674.284C99.2088 673.383 99.5084 672.265 99.5084 671.112C99.5084 669.959 99.2088 668.841 98.6586 667.94C98.1084 667.039 97.3403 666.409 96.4801 666.153L57.9744 637.109C55.8314 635.68 53.4598 634.935 51.0539 634.935C48.6479 634.935 46.2763 635.68 44.1333 637.109L5.62758 666.153C4.7674 666.409 3.99931 667.039 3.44913 667.94C2.89895 668.841 2.59929 669.959 2.59929 671.112C2.59929 672.265 2.89895 673.383 3.44913 674.284C3.99931 675.185 4.7674 675.815 5.62758 676.071L44.1333 705.115Z" fill="#42E8E0"/>
<path opacity="0.4" d="M101.133 659.973V642.73L98.7189 640.975C98.0376 646.366 93.1903 649.901 89.1412 650.639L61.5369 671.722L49.5063 677.368L11.0589 651.453L11.9544 650.791C8.66447 648.782 6.89295 644.205 5.12145 640.008L2.53236 642.043L0.994446 642.602V660.125C1.08794 661.452 1.45126 662.723 2.04681 663.805C2.64236 664.887 3.44846 665.741 4.38169 666.28L42.8875 695.323C45.4211 697.003 48.2224 697.879 51.0637 697.879C53.905 697.879 56.7061 697.003 59.2398 695.323L97.7456 666.28C98.6613 665.737 99.4542 664.895 100.048 663.834C100.641 662.774 101.015 661.531 101.133 660.227C101.133 660.227 101.133 660.023 101.133 659.922V659.973Z" fill="#42E8E0"/>
<path d="M101.133 644.637V633.243L98.7189 631.489C98.0376 636.88 93.1903 640.415 89.1412 641.153L61.5369 662.236L49.5063 667.907L11.0589 641.992L11.9544 641.331C8.66447 639.322 6.89295 634.744 5.12145 630.573L2.53236 632.582L0.994446 633.142V644.84C1.0996 646.163 1.46746 647.427 2.0616 648.506C2.65575 649.586 3.45554 650.444 4.38169 650.995L42.8875 680.038C45.4211 681.718 48.2224 682.594 51.0637 682.594C53.905 682.594 56.7061 681.718 59.2398 680.038L97.7456 650.995C98.6613 650.452 99.4542 649.61 100.048 648.55C100.641 647.489 101.015 646.247 101.133 644.942C101.133 644.942 101.133 644.739 101.133 644.637V644.637Z" fill="url(#paint7_linear)"/>
<path d="M42.8875 668.467L4.38171 639.423C-0.134642 636.015 -0.134642 630.471 4.38171 627.089L42.8875 598.045C45.4212 596.365 48.2224 595.49 51.0637 595.49C53.905 595.49 56.7062 596.365 59.2398 598.045L97.7456 627.089C102.243 630.497 102.243 636.015 97.7456 639.423L59.2398 668.467C56.7062 670.147 53.905 671.022 51.0637 671.022C48.2224 671.022 45.4212 670.147 42.8875 668.467Z" fill="url(#paint8_linear)"/>
<path d="M51.064 663.176C48.7799 663.244 46.5209 662.543 44.5036 661.142L14.427 638.456C13.6046 638.075 12.8927 637.37 12.3893 636.439C11.8859 635.508 11.6157 634.396 11.6157 633.255C11.6157 632.115 11.8859 631.003 12.3893 630.072C12.8927 629.141 13.6046 628.436 14.427 628.055L44.5036 605.369C46.5354 604.016 48.7835 603.311 51.064 603.311C53.3445 603.311 55.5926 604.016 57.6244 605.369L87.701 628.055C88.5234 628.436 89.2352 629.141 89.7386 630.072C90.242 631.003 90.5123 632.115 90.5123 633.255C90.5123 634.396 90.242 635.508 89.7386 636.439C89.2352 637.37 88.5234 638.075 87.701 638.456L57.6244 661.142C55.6071 662.543 53.3481 663.244 51.064 663.176V663.176ZM44.8345 660.379C46.7615 661.659 48.8926 662.326 51.0543 662.326C53.2159 662.326 55.347 661.659 57.274 660.379L87.37 637.693C88.0921 637.395 88.7228 636.804 89.1704 636.006C89.618 635.208 89.8594 634.245 89.8594 633.255C89.8594 632.266 89.618 631.303 89.1704 630.504C88.7228 629.706 88.0921 629.116 87.37 628.818L57.274 606.158C55.347 604.878 53.2159 604.211 51.0543 604.211C48.8926 604.211 46.7615 604.878 44.8345 606.158L14.758 628.843C14.082 629.227 13.4966 629.839 13.062 630.617C12.6275 631.395 12.3594 632.31 12.2856 633.268C12.362 634.228 12.6308 635.145 13.0648 635.927C13.4989 636.708 14.0829 637.326 14.758 637.719L44.8345 660.379Z" fill="#5351AF"/>
<path d="M97.7452 639.424L59.2394 668.467C56.7058 670.147 53.9046 671.023 51.0633 671.023C48.222 671.023 45.4208 670.147 42.8872 668.467L4.38138 639.424C3.54114 638.906 2.80263 638.144 2.2223 637.197C1.64196 636.249 1.23518 635.14 1.03305 633.956C0.988541 635.413 1.28519 636.854 1.88343 638.085C2.48167 639.316 3.35305 640.28 4.38138 640.848L42.8872 669.891C45.4235 671.56 48.2237 672.429 51.0633 672.429C53.903 672.429 56.7031 671.56 59.2394 669.891L97.7452 640.848C98.7732 640.282 99.6437 639.318 100.239 638.086C100.834 636.853 101.126 635.412 101.074 633.956C100.875 635.139 100.472 636.246 99.8951 637.194C99.3181 638.142 98.5827 638.905 97.7452 639.424V639.424Z" fill="white"/>
<path d="M55.7798 658.862L143.03 593.276L170.953 612.957L171.277 612.954L225.307 572.946L224.979 571.944L170.948 611.751L143.025 592.07L142.38 592.477L55.4517 657.86L55.7798 658.862Z" fill="url(#paint9_linear)"/>
<g opacity="0.3">
<path opacity="0.3" d="M604.735 265.678V254.284L602.324 252.529C601.643 257.896 596.8 261.456 592.755 262.194L565.177 283.251L553.158 288.948L514.748 263.033L515.642 262.346C512.356 260.362 510.586 255.759 508.816 251.588L506.229 253.598L504.693 254.157V265.856C504.784 267.184 505.147 268.455 505.742 269.538C506.337 270.62 507.144 271.474 508.077 272.01L546.546 301.054C549.077 302.734 551.875 303.609 554.714 303.609C557.553 303.609 560.351 302.734 562.882 301.054L601.351 272.01C602.266 271.468 603.058 270.625 603.651 269.565C604.244 268.505 604.617 267.262 604.735 265.958V265.678V265.678Z" fill="url(#paint10_linear)"/>
<path opacity="0.3" d="M592.754 262.193L565.177 283.251L554.713 288.211V303.622C557.557 303.699 560.369 302.824 562.882 301.079L601.35 272.036C602.265 271.493 603.057 270.651 603.65 269.59C604.243 268.53 604.616 267.287 604.734 265.983V265.703V254.309L602.537 252.707H602.303C601.525 257.972 596.761 261.456 592.754 262.193Z" fill="#0F054C"/>
<path opacity="0.3" d="M546.545 289.482L508.174 260.438C503.662 257.03 503.662 251.512 508.174 248.104L546.545 218.959C549.077 217.279 551.875 216.403 554.714 216.403C557.552 216.403 560.351 217.279 562.882 218.959L601.351 248.002C605.863 251.41 605.863 256.929 601.351 260.337L562.882 289.38C560.357 291.076 557.561 291.969 554.723 291.987C551.884 292.004 549.083 291.146 546.545 289.482V289.482Z" fill="url(#paint11_linear)"/>
<g opacity="0.3">
<path opacity="0.3" d="M546.545 289.482L508.174 260.438C503.662 257.03 503.662 251.512 508.174 248.104L546.545 218.959C549.077 217.279 551.875 216.403 554.714 216.403C557.552 216.403 560.351 217.279 562.882 218.959L601.351 248.002C605.863 251.41 605.863 256.929 601.351 260.337L562.882 289.38C560.357 291.076 557.561 291.969 554.723 291.987C551.884 292.004 549.083 291.146 546.545 289.482V289.482Z" fill="#0F054C"/>
</g>
</g>
<path d="M554.715 254.691C552.189 254.751 549.694 253.972 547.461 252.428L508.992 223.384C508.084 222.967 507.297 222.191 506.74 221.164C506.183 220.136 505.884 218.908 505.884 217.649C505.884 216.39 506.183 215.162 506.74 214.135C507.297 213.107 508.084 212.331 508.992 211.914L547.461 182.871C549.711 181.39 552.196 180.619 554.715 180.619C557.234 180.619 559.719 181.39 561.969 182.871L600.438 211.914C601.346 212.331 602.133 213.107 602.69 214.135C603.247 215.162 603.546 216.39 603.546 217.649C603.546 218.908 603.247 220.136 602.69 221.164C602.133 222.191 601.346 222.967 600.438 223.384L561.969 252.428C559.736 253.972 557.241 254.751 554.715 254.691ZM554.715 181.472C552.311 181.417 549.935 182.161 547.811 183.634L509.323 212.677C508.524 213.024 507.829 213.691 507.337 214.584C506.844 215.476 506.579 216.549 506.579 217.649C506.579 218.75 506.844 219.822 507.337 220.715C507.829 221.607 508.524 222.274 509.323 222.621L547.811 251.665C549.955 253.082 552.323 253.82 554.725 253.82C557.127 253.82 559.495 253.082 561.639 251.665L600.107 222.621C600.906 222.274 601.601 221.607 602.093 220.715C602.586 219.822 602.851 218.75 602.851 217.649C602.851 216.549 602.586 215.476 602.093 214.584C601.601 213.691 600.906 213.024 600.107 212.677L561.639 183.634C559.507 182.161 557.125 181.418 554.715 181.472V181.472Z" fill="#42E8E0"/>
<path opacity="0.4" d="M604.735 206.497V189.28L602.324 187.525C601.643 192.891 596.8 196.451 592.755 197.189L565.177 218.272L553.158 224.045L514.748 198.13L515.642 197.469C512.356 195.46 510.586 190.882 508.816 186.686L506.229 188.695L504.693 189.28V206.777C504.817 208.099 505.204 209.356 505.814 210.423C506.425 211.489 507.239 212.328 508.174 212.855L546.546 241.848C549.077 243.528 551.875 244.403 554.714 244.403C557.553 244.403 560.351 243.528 562.882 241.848L601.351 212.804C602.266 212.262 603.058 211.419 603.651 210.359C604.244 209.299 604.617 208.056 604.735 206.751V206.446V206.497Z" fill="#42E8E0"/>
<path d="M604.735 191.187V179.793L602.324 178.039C601.643 183.405 596.8 186.965 592.755 187.703L565.177 208.786L553.158 214.457L514.748 188.44L515.642 187.779C512.356 185.77 510.586 181.192 508.816 176.996L506.229 179.005L504.693 179.59V191.263C504.795 192.59 505.161 193.859 505.755 194.944C506.348 196.028 507.149 196.89 508.077 197.443L546.546 226.588C549.08 228.257 551.877 229.126 554.714 229.126C557.551 229.126 560.348 228.257 562.882 226.588L601.351 197.545C602.266 197.002 603.058 196.16 603.651 195.1C604.244 194.039 604.617 192.797 604.735 191.492V191.187Z" fill="url(#paint12_linear)"/>
<path opacity="0.3" d="M592.754 187.704L565.177 208.787L554.713 213.721V229.132C557.557 229.209 560.369 228.334 562.882 226.589L601.35 197.546C602.265 197.003 603.057 196.161 603.65 195.1C604.243 194.04 604.616 192.797 604.734 191.493V191.188V179.794L602.537 178.192H602.303C601.525 183.482 596.761 186.966 592.754 187.704Z" fill="#0F054C"/>
<path d="M515.642 187.88L552.108 160.464C552.92 159.932 553.815 159.655 554.724 159.655C555.632 159.655 556.528 159.932 557.339 160.464L593.144 187.499L592.755 187.804C596.8 187.066 601.643 183.506 602.323 178.14L562.124 148.893L550.455 144.849L540.925 152.174L508.835 177.199C510.586 181.293 512.355 185.897 515.642 187.88Z" fill="url(#paint13_linear)"/>
<path opacity="0.3" d="M554.714 146.248L550.435 144.748L540.906 152.072L508.816 177.097C510.586 181.294 512.356 185.871 515.642 187.88L552.108 160.465C552.905 159.89 553.804 159.6 554.714 159.625V146.248Z" fill="#0F054C"/>
<path d="M546.545 214.992L508.174 185.897C503.662 182.515 503.662 176.97 508.174 173.563L546.643 144.519C549.177 142.851 551.974 141.982 554.811 141.982C557.648 141.982 560.445 142.851 562.979 144.519L601.448 173.563C605.96 176.97 605.96 182.515 601.448 185.897L562.979 214.941C560.439 216.649 557.624 217.545 554.767 217.554C551.91 217.563 549.092 216.685 546.545 214.992ZM557.339 148.868C556.527 148.335 555.632 148.058 554.723 148.058C553.815 148.058 552.92 148.335 552.108 148.868L513.639 177.911C513.318 178.047 513.039 178.313 512.841 178.669C512.643 179.025 512.536 179.455 512.536 179.895C512.536 180.336 512.643 180.765 512.841 181.121C513.039 181.478 513.318 181.743 513.639 181.879L552.108 210.922C552.92 211.455 553.815 211.732 554.723 211.732C555.632 211.732 556.527 211.455 557.339 210.922L595.808 181.879C596.119 181.731 596.388 181.461 596.578 181.106C596.768 180.751 596.87 180.328 596.87 179.895C596.87 179.462 596.768 179.039 596.578 178.684C596.388 178.329 596.119 178.06 595.808 177.911L557.339 148.868Z" fill="url(#paint14_linear)"/>
<path d="M595.807 177.809L557.339 148.766C556.527 148.233 555.631 147.956 554.723 147.956C553.815 147.956 552.919 148.233 552.107 148.766L513.638 177.809C512.666 178.547 512.355 179.564 512.666 180.505C512.885 179.963 513.224 179.52 513.638 179.234L552.107 150.292C552.919 149.759 553.815 149.482 554.723 149.482C555.631 149.482 556.527 149.759 557.339 150.292L595.807 179.335C596.217 179.622 596.549 180.066 596.76 180.607C597.072 179.564 596.76 178.547 595.807 177.809Z" fill="white"/>
<path d="M601.352 185.897L562.883 214.94C560.352 216.62 557.554 217.496 554.715 217.496C551.877 217.496 549.078 216.62 546.547 214.94L508.175 185.897C507.336 185.386 506.597 184.63 506.017 183.686C505.437 182.742 505.031 181.636 504.83 180.454C504.787 181.908 505.084 183.344 505.682 184.571C506.28 185.798 507.15 186.758 508.175 187.321L546.547 216.415C549.078 218.095 551.877 218.971 554.715 218.971C557.554 218.971 560.352 218.095 562.883 216.415L601.352 187.372C602.378 186.808 603.248 185.849 603.846 184.622C604.443 183.395 604.74 181.959 604.697 180.505C604.491 181.678 604.083 182.774 603.503 183.708C602.923 184.643 602.187 185.391 601.352 185.897Z" fill="white"/>
<path d="M547.634 214.178L509.166 185.134C505.276 182.184 505.276 177.505 509.166 174.453L547.634 145.409C549.826 143.945 552.252 143.181 554.714 143.181C557.175 143.181 559.601 143.945 561.793 145.409L600.261 174.453C604.151 177.403 604.151 182.082 600.261 185.134L561.793 214.178C559.601 215.642 557.175 216.406 554.714 216.406C552.252 216.406 549.826 215.642 547.634 214.178V214.178ZM558.409 148.054C557.265 147.289 555.998 146.889 554.714 146.889C553.429 146.889 552.162 147.289 551.018 148.054L512.55 176.996C512.101 177.192 511.711 177.568 511.435 178.07C511.159 178.572 511.01 179.175 511.01 179.793C511.01 180.412 511.159 181.015 511.435 181.517C511.711 182.019 512.101 182.395 512.55 182.591L550.96 211.634C552.107 212.386 553.372 212.778 554.655 212.778C555.938 212.778 557.203 212.386 558.35 211.634L596.839 182.591C597.287 182.395 597.677 182.019 597.953 181.517C598.23 181.015 598.378 180.412 598.378 179.793C598.378 179.175 598.23 178.572 597.953 178.07C597.677 177.568 597.287 177.192 596.839 176.996L558.409 148.054Z" fill="url(#paint15_linear)"/>
<path opacity="0.4" d="M557.34 148.766C556.528 148.233 555.633 147.956 554.725 147.956C553.816 147.956 552.921 148.233 552.109 148.766L513.64 177.809C513.319 177.945 513.04 178.21 512.842 178.567C512.644 178.923 512.537 179.352 512.537 179.793C512.537 180.234 512.644 180.663 512.842 181.019C513.04 181.376 513.319 181.641 513.64 181.777L552.109 210.82C552.921 211.353 553.816 211.63 554.725 211.63C555.633 211.63 556.528 211.353 557.34 210.82L595.809 181.777C596.12 181.629 596.389 181.359 596.579 181.004C596.77 180.649 596.871 180.226 596.871 179.793C596.871 179.36 596.77 178.937 596.579 178.582C596.389 178.227 596.12 177.957 595.809 177.809L557.34 148.766Z" fill="#42E8E0"/>
<path d="M528.32 238.053L439.177 302.88L439.166 344.859L439.004 345.225L384.227 385.686L383.687 384.791L438.323 344.223L438.334 302.244L438.938 301.724L527.779 237.157L528.32 238.053Z" fill="url(#paint16_linear)"/>
<path opacity="0.5" d="M472.672 421.882L487.756 433.289V478.834L472.672 467.448V421.882Z" fill="#758EF5"/>
<path opacity="0.2" d="M457.589 433.289L472.672 444.675V467.448L457.589 456.061V433.289Z" fill="#758EF5"/>
<path opacity="0.5" d="M442.504 353.544L457.588 364.95V456.061L442.504 444.675V353.544Z" fill="#758EF5"/>
<path opacity="0.2" d="M427.405 319.384L442.504 330.77V444.674L427.405 433.288V319.384Z" fill="#758EF5"/>
<path opacity="0.5" d="M412.322 330.771L427.405 342.157V433.288L412.322 421.882V330.771Z" fill="#758EF5"/>
<path opacity="0.2" d="M397.237 251.046L412.321 262.432V421.882L397.237 410.495V251.046Z" fill="#758EF5"/>
<path opacity="0.5" d="M382.155 262.433L397.238 273.819V410.496L382.155 399.109V262.433Z" fill="#758EF5"/>
<path opacity="0.2" d="M367.072 273.818L382.155 285.204V399.108L367.072 387.722V273.818Z" fill="#758EF5"/>
<path opacity="0.5" d="M351.974 216.867L367.073 228.273V387.723L351.974 376.336V216.867Z" fill="#758EF5"/>
<path opacity="0.2" d="M336.889 159.935L351.973 171.321V376.336L336.889 364.929V159.935Z" fill="#758EF5"/>
<path opacity="0.5" d="M321.806 171.322L336.889 182.708V364.93L321.806 353.544V171.322Z" fill="#758EF5"/>
<path opacity="0.2" d="M306.722 114.369L321.806 125.755V353.543L306.722 342.157V114.369Z" fill="#758EF5"/>
<path opacity="0.5" d="M291.622 102.983L306.721 114.369V342.157L291.622 330.77V102.983Z" fill="#758EF5"/>
<path opacity="0.2" d="M276.54 46.0308L291.623 57.4171V330.77L276.54 319.384V46.0308Z" fill="#758EF5"/>
<path opacity="0.4" d="M291.357 647.819C367.679 647.819 429.55 601.11 429.55 543.492C429.55 485.874 367.679 439.165 291.357 439.165C215.036 439.165 153.164 485.874 153.164 543.492C153.164 601.11 215.036 647.819 291.357 647.819Z" fill="#0F054C"/>
<path d="M291.358 606.34C378.226 606.34 448.646 553.177 448.646 487.597C448.646 422.017 378.226 368.854 291.358 368.854C204.49 368.854 134.07 422.017 134.07 487.597C134.07 553.177 204.49 606.34 291.358 606.34Z" fill="url(#paint17_linear)"/>
<path opacity="0.48" d="M448.662 448.498H444.775C438.461 427.352 424.404 407.242 402.588 390.793C341.165 344.414 241.567 344.414 180.222 390.793C159.619 406.348 146.012 425.135 139.155 445H134.226V471.331C132.997 502.867 148.329 534.708 180.222 558.762C241.645 605.121 341.243 605.121 402.665 558.762C433.377 535.562 448.74 505.185 448.74 474.788L448.662 448.498Z" fill="url(#paint18_linear)"/>
<path opacity="0.48" d="M444.775 438.29C444.558 437.558 444.324 436.826 444.075 436.094V418.791H435.834V417.55C433.68 413.772 431.343 410.18 428.836 406.794V418.791H424.171V400.837C421.984 398.234 419.641 395.686 417.143 393.192V418.831H412.478V388.637C410.223 386.604 407.813 384.571 405.418 382.659V418.73H400.753V379.081C398.452 377.386 396.093 375.76 393.678 374.201V418.73H389.013V371.375C386.68 370.019 384.317 368.664 381.922 367.308V418.73H377.257V377.149H370.151V418.791H365.486V388.637H358.348V418.852H353.683V400.064H346.53V418.852H341.959V411.512H334.852V418.852H247.99V411.512H240.806V418.852H236.234V400.064H229.112V418.852H224.447V388.637H217.31V418.852H212.645V377.149H205.538V418.791H200.873V367.328C198.479 368.603 196.115 369.958 193.782 371.395V418.852H189.117V374.221C186.707 375.787 184.344 377.393 182.042 379.081V418.791H177.377V382.659C174.92 384.584 172.567 386.57 170.318 388.617V418.791H165.653V393.09C163.149 395.571 160.816 398.133 158.624 400.735V418.791H153.959V406.591C151.461 409.98 149.125 413.565 146.961 417.327V418.689H138.72V434.65H135.221V478.793C136.585 487.035 138.942 494.941 142.203 502.216V474.706H146.961V511.65C149.116 515.414 151.453 518.993 153.959 522.366V474.706H158.624V528.344C160.816 530.926 163.165 533.488 165.653 535.968V474.706H170.318V540.442C172.577 542.475 174.931 544.467 177.377 546.419V474.706H182.042V549.937C184.344 551.604 186.702 553.224 189.117 554.796V474.706H193.782V557.724C196.115 559.08 198.479 560.435 200.873 561.791V474.767H205.538V564.231C207.871 565.39 210.203 566.488 212.645 567.545V474.706H217.31V569.334C219.673 570.29 221.975 571.185 224.447 572.039V474.706H229.112V573.665C231.476 574.418 233.855 575.15 236.265 575.821V474.767H240.837V577.061C243.216 577.671 245.611 578.22 248.021 578.748V474.706H252.577V579.602C254.956 580.07 257.366 580.477 259.777 580.863V474.706H264.302V581.514C266.696 581.819 269.107 582.083 271.533 582.327V474.706H276.026V582.713C278.452 582.876 280.863 583.018 283.288 583.12V474.706H287.767V583.242C290.213 583.242 292.655 583.242 295.091 583.242V474.706H299.569V583.12C301.995 583.12 304.405 582.876 306.831 582.713V474.706H311.325V582.327C313.751 582.083 316.161 581.819 318.556 581.493V474.706H323.081V580.843C325.491 580.477 327.901 580.05 330.28 579.602V474.706H334.852V578.667C337.262 578.159 339.657 577.589 342.036 576.979V474.706H346.608V575.699C349.018 575.007 351.397 574.296 353.761 573.523V474.706H358.426V572.018C360.821 571.164 363.2 570.249 365.563 569.314V474.706H370.228V567.362C372.623 566.325 375.002 565.329 377.335 564.068V474.706H382V561.689C384.395 560.408 386.758 559.087 389.091 557.623V474.706H393.756V554.796C396.171 553.224 398.529 551.604 400.831 549.937V474.706H405.496V546.379C407.953 544.427 410.306 542.427 412.556 540.381V474.706H417.221V535.907C419.709 533.4 422.051 530.851 424.249 528.262V474.706H428.914V522.305C431.424 518.924 433.762 515.331 435.912 511.549V474.706H440.592V502.135C443.879 494.796 446.237 486.811 447.574 478.488V438.31L444.775 438.29Z" fill="url(#paint19_linear)"/>
<path d="M291.358 557.074C378.226 557.074 448.646 503.911 448.646 438.331C448.646 372.751 378.226 319.588 291.358 319.588C204.49 319.588 134.07 372.751 134.07 438.331C134.07 503.911 204.49 557.074 291.358 557.074Z" fill="url(#paint20_linear)"/>
<path opacity="0.3" d="M291.421 319.506C255.78 319.506 220.139 328.595 191.123 346.752L144.193 480.135C151.844 495.486 163.802 509.861 180.145 522.203C190.692 530.055 201.827 536.473 213.375 541.356L291.421 319.506Z" fill="#91A2FA"/>
<path opacity="0.3" d="M335.488 324.345L254.753 553.821C274.263 557.285 294.003 557.967 313.625 555.854L387.938 344.617C371.187 334.964 353.561 328.152 335.488 324.345V324.345Z" fill="#91A2FA"/>
<g opacity="0.05">
<path opacity="0.05" d="M291.358 543.492C368.29 543.492 430.655 496.41 430.655 438.331C430.655 380.252 368.29 333.17 291.358 333.17C214.427 333.17 152.061 380.252 152.061 438.331C152.061 496.41 214.427 543.492 291.358 543.492Z" fill="url(#paint21_linear)"/>
<g opacity="0.05">
<path opacity="0.05" d="M42.5428 437.884L41.05 436.745L283.723 253.547L285.216 254.686L42.5428 437.884Z" fill="#91A2FA"/>
<path opacity="0.05" d="M46.8188 441.096L45.326 439.977L287.999 256.779L289.492 257.898L46.8188 441.096Z" fill="#91A2FA"/>
<path opacity="0.05" d="M51.0957 444.33L49.6029 443.211L292.276 260.013L293.769 261.131L51.0957 444.33Z" fill="#91A2FA"/>
<path opacity="0.05" d="M55.3716 447.562L53.8788 446.444L296.552 263.246L298.045 264.364L55.3716 447.562Z" fill="#91A2FA"/>
<path opacity="0.05" d="M59.6481 450.795L58.1553 449.657L300.829 266.458L302.322 267.597L59.6481 450.795Z" fill="#91A2FA"/>
<path opacity="0.05" d="M63.924 454.007L62.4312 452.889L305.105 269.691L306.598 270.809L63.924 454.007Z" fill="#91A2FA"/>
<path opacity="0.05" d="M68.2004 457.24L66.7076 456.122L309.381 272.924L310.858 274.042L68.2004 457.24Z" fill="#91A2FA"/>
<path opacity="0.05" d="M72.4769 460.473L70.9841 459.355L313.657 276.157L315.135 277.275L72.4769 460.473Z" fill="#91A2FA"/>
<path opacity="0.05" d="M76.7528 463.707L75.26 462.568L317.934 279.37L319.411 280.488L76.7528 463.707Z" fill="#91A2FA"/>
<path opacity="0.05" d="M81.0292 466.919L79.5364 465.801L322.21 282.603L323.687 283.721L81.0292 466.919Z" fill="#91A2FA"/>
<path opacity="0.05" d="M85.2897 470.151L83.8124 469.033L326.486 285.835L327.963 286.953L85.2897 470.151Z" fill="#91A2FA"/>
<path opacity="0.05" d="M89.5661 473.385L88.0889 472.266L330.762 289.068L332.24 290.187L89.5661 473.385Z" fill="#91A2FA"/>
<path opacity="0.05" d="M93.8425 476.597L92.3653 475.478L335.039 292.28L336.516 293.399L93.8425 476.597Z" fill="#91A2FA"/>
<path opacity="0.05" d="M98.119 479.83L96.6418 478.712L339.315 295.514L340.792 296.632L98.119 479.83Z" fill="#91A2FA"/>
<path opacity="0.05" d="M102.395 483.063L100.918 481.944L343.591 298.746L345.068 299.864L102.395 483.063Z" fill="#91A2FA"/>
<path opacity="0.05" d="M106.672 486.296L105.179 485.177L347.853 301.959L349.345 303.098L106.672 486.296Z" fill="#91A2FA"/>
<path opacity="0.05" d="M110.948 489.529L109.455 488.39L352.128 305.192L353.621 306.31L110.948 489.529Z" fill="#91A2FA"/>
<path opacity="0.05" d="M115.224 492.742L113.731 491.623L356.405 308.425L357.898 309.544L115.224 492.742Z" fill="#91A2FA"/>
<path opacity="0.05" d="M119.5 495.974L118.007 494.856L360.681 311.658L362.174 312.776L119.5 495.974Z" fill="#91A2FA"/>
<path opacity="0.05" d="M123.777 499.207L122.284 498.069L364.957 314.871L366.45 316.009L123.777 499.207Z" fill="#91A2FA"/>
<path opacity="0.05" d="M128.053 502.419L126.56 501.301L369.234 318.103L370.726 319.221L128.053 502.419Z" fill="#91A2FA"/>
<path opacity="0.05" d="M132.329 505.652L130.836 504.534L373.51 321.336L375.002 322.454L132.329 505.652Z" fill="#91A2FA"/>
<path opacity="0.05" d="M136.605 508.886L135.113 507.767L377.786 324.569L379.279 325.688L136.605 508.886Z" fill="#91A2FA"/>
<path opacity="0.05" d="M140.881 512.118L139.388 511L382.062 327.781L383.555 328.92L140.881 512.118Z" fill="#91A2FA"/>
<path opacity="0.05" d="M145.158 515.33L143.665 514.212L386.338 331.014L387.831 332.132L145.158 515.33Z" fill="#91A2FA"/>
<path opacity="0.05" d="M149.434 518.563L147.941 517.445L390.615 334.247L392.092 335.365L149.434 518.563Z" fill="#91A2FA"/>
<path opacity="0.05" d="M153.711 521.796L152.218 520.678L394.891 337.48L396.368 338.598L153.711 521.796Z" fill="#91A2FA"/>
<path opacity="0.05" d="M157.971 525.029L156.494 523.891L399.167 340.693L400.645 341.831L157.971 525.029Z" fill="#91A2FA"/>
<path opacity="0.05" d="M162.247 528.242L160.77 527.124L403.443 343.926L404.92 345.044L162.247 528.242Z" fill="#91A2FA"/>
<path opacity="0.05" d="M166.523 531.475L165.046 530.356L407.72 347.158L409.197 348.276L166.523 531.475Z" fill="#91A2FA"/>
<path opacity="0.05" d="M170.8 534.707L169.323 533.589L411.996 350.391L413.473 351.509L170.8 534.707Z" fill="#91A2FA"/>
<path opacity="0.05" d="M175.076 537.941L173.599 536.802L416.273 353.604L417.75 354.723L175.076 537.941Z" fill="#91A2FA"/>
<path opacity="0.05" d="M179.352 541.153L177.875 540.035L420.533 356.837L422.026 357.955L179.352 541.153Z" fill="#91A2FA"/>
<path opacity="0.05" d="M183.628 544.386L182.151 543.268L424.824 360.07L426.302 361.188L183.628 544.386Z" fill="#91A2FA"/>
<path opacity="0.05" d="M187.905 547.619L186.427 546.501L429.085 363.283L430.578 364.421L187.905 547.619Z" fill="#91A2FA"/>
<path opacity="0.05" d="M192.181 550.852L190.704 549.713L433.362 366.515L434.854 367.654L192.181 550.852Z" fill="#91A2FA"/>
<path opacity="0.05" d="M196.457 554.064L194.965 552.946L437.638 369.748L439.131 370.866L196.457 554.064Z" fill="#91A2FA"/>
<path opacity="0.05" d="M200.734 557.298L199.241 556.18L441.915 372.982L443.407 374.1L200.734 557.298Z" fill="#91A2FA"/>
<path opacity="0.05" d="M205.01 560.53L203.518 559.412L446.191 376.194L447.684 377.332L205.01 560.53Z" fill="#91A2FA"/>
<path opacity="0.05" d="M209.286 563.763L207.793 562.625L450.466 379.427L451.959 380.565L209.286 563.763Z" fill="#91A2FA"/>
<path opacity="0.05" d="M213.562 566.976L212.069 565.857L454.743 382.659L456.236 383.778L213.562 566.976Z" fill="#91A2FA"/>
<path opacity="0.05" d="M217.84 570.208L216.347 569.09L459.02 385.892L460.513 387.01L217.84 570.208Z" fill="#91A2FA"/>
<path opacity="0.05" d="M222.115 573.442L220.622 572.324L463.296 389.126L464.789 390.244L222.115 573.442Z" fill="#91A2FA"/>
<path opacity="0.05" d="M226.392 576.675L224.899 575.537L467.572 392.339L469.065 393.457L226.392 576.675Z" fill="#91A2FA"/>
<path opacity="0.05" d="M230.668 579.888L229.175 578.769L471.849 395.571L473.341 396.69L230.668 579.888Z" fill="#91A2FA"/>
<path opacity="0.05" d="M234.944 583.12L233.452 582.002L476.125 398.804L477.618 399.922L234.944 583.12Z" fill="#91A2FA"/>
<path opacity="0.05" d="M239.22 586.353L237.727 585.235L480.401 402.016L481.893 403.155L239.22 586.353Z" fill="#91A2FA"/>
<path opacity="0.05" d="M243.496 589.565L242.003 588.447L484.677 405.249L486.154 406.367L243.496 589.565Z" fill="#91A2FA"/>
<path opacity="0.05" d="M247.773 592.799L246.28 591.681L488.953 408.483L490.431 409.601L247.773 592.799Z" fill="#91A2FA"/>
<path opacity="0.05" d="M252.033 596.032L250.555 594.913L493.229 411.715L494.706 412.834L252.033 596.032Z" fill="#91A2FA"/>
<path opacity="0.05" d="M256.309 599.265L254.832 598.146L497.505 414.928L498.982 416.067L256.309 599.265Z" fill="#91A2FA"/>
<path opacity="0.05" d="M260.587 602.477L259.109 601.359L501.783 418.161L503.26 419.279L260.587 602.477Z" fill="#91A2FA"/>
<path opacity="0.05" d="M264.863 605.709L263.386 604.591L506.059 421.393L507.536 422.511L264.863 605.709Z" fill="#91A2FA"/>
<path opacity="0.05" d="M269.138 608.943L267.661 607.825L510.335 424.627L511.812 425.745L269.138 608.943Z" fill="#91A2FA"/>
<path opacity="0.05" d="M273.414 612.177L271.921 611.038L514.594 427.84L516.087 428.978L273.414 612.177Z" fill="#91A2FA"/>
<path opacity="0.05" d="M277.69 615.389L276.197 614.27L518.871 431.072L520.364 432.191L277.69 615.389Z" fill="#91A2FA"/>
<path opacity="0.05" d="M281.967 618.621L280.474 617.503L523.147 434.305L524.64 435.423L281.967 618.621Z" fill="#91A2FA"/>
<path opacity="0.05" d="M286.242 621.854L284.749 620.736L527.423 437.538L528.916 438.656L286.242 621.854Z" fill="#91A2FA"/>
<path opacity="0.05" d="M290.519 625.086L289.026 623.948L531.699 440.75L533.192 441.888L290.519 625.086Z" fill="#91A2FA"/>
<path opacity="0.05" d="M294.795 628.3L293.302 627.182L535.976 443.984L537.469 445.102L294.795 628.3Z" fill="#91A2FA"/>
<path opacity="0.05" d="M299.07 631.533L297.578 630.415L540.251 447.217L541.744 448.335L299.07 631.533Z" fill="#91A2FA"/>
</g>
</g>
<path d="M192.865 371.05C247.29 329.998 335.459 329.998 389.868 371.05C415.868 390.691 429.427 416.148 430.578 441.869C431.822 413.789 418.263 385.405 389.868 363.974C335.443 322.902 247.259 322.902 192.865 363.974C164.471 385.405 150.88 413.789 152.155 441.869C153.306 416.148 166.912 390.671 192.865 371.05Z" fill="url(#paint22_linear)"/>
<path d="M334.417 416.066C326.122 415.105 317.777 416.932 310.174 421.373C319.504 411.207 317.353 400.817 303.721 390.203L302.71 389.43C298.289 385.986 293.542 383.313 288.591 381.48C283.905 379.694 279.056 378.744 274.176 378.654C269.516 378.693 264.879 379.485 260.368 381.013C257.849 381.853 255.443 382.788 253.152 383.818L244.382 377.19L231.476 386.929L238.691 392.399C237.416 393.293 236.125 394.229 234.803 395.225L230.138 398.804L222.985 393.395L210.079 403.135L217.232 408.543L208.322 415.273L204.839 417.916L203.89 418.608L189.086 429.791L201.993 439.55L216.796 428.367L309.817 498.637L294.997 509.82L307.904 519.56L322.723 508.377L327.155 505.042L336.065 498.312L343.342 503.802L356.249 494.063L351.584 490.586L348.925 488.552L357.493 482.087L364.77 487.576L377.677 477.837L373.012 474.36L369.311 471.554C374.396 465.759 377.086 459.904 377.428 454.007C377.801 445.196 372.203 436.385 360.634 427.574L359.857 426.965C352.071 420.993 343.395 417.277 334.417 416.066V416.066ZM247.772 412.122L251.924 408.97C262.208 401.216 272.056 400.878 281.469 407.953C286.974 412.02 289.959 415.903 290.472 419.34C290.986 422.776 288.404 426.639 282.697 430.909L277.675 434.691L247.772 412.122ZM330.685 474.706L294.966 447.806L300.129 443.902C305.037 439.836 310.74 437.717 316.55 437.802C321.671 438.127 327.58 440.838 334.277 445.935C340.248 450.449 343.472 454.617 343.949 458.44C344.431 462.262 341.819 466.329 336.174 470.639L330.685 474.706Z" fill="url(#paint23_linear)"/>
<path d="M210.001 389.451V400.268L217.154 394.859L210.001 389.451Z" fill="url(#paint24_linear)"/>
<path d="M231.475 373.246V384.063L238.69 378.715L231.475 373.246Z" fill="url(#paint25_linear)"/>
<path d="M315.881 394.879V407.729L309.412 402.544L315.881 394.879Z" fill="url(#paint26_linear)"/>
<path d="M377.506 438.331V454.028L367.803 446.179L377.506 438.331Z" fill="url(#paint27_linear)"/>
<path d="M334.417 402.383C326.122 401.422 317.777 403.248 310.174 407.69C319.504 397.523 317.353 387.126 303.721 376.499L302.71 375.747C298.289 372.303 293.542 369.63 288.591 367.797C283.907 366.001 279.057 365.05 274.176 364.971C269.516 365.01 264.879 365.802 260.368 367.329C257.849 368.156 255.443 369.091 253.152 370.135L244.382 363.507L231.476 373.246L238.691 378.715C237.416 379.61 236.125 380.545 234.803 381.542L230.138 385.12L222.985 379.712L210.079 389.451L217.232 394.86L208.322 401.59L204.839 404.213L203.89 404.924L189.086 416.107L201.993 425.867L216.796 414.684L309.894 484.954L295.075 496.137L307.982 505.876L322.801 494.693L327.233 491.359L336.143 484.629L343.42 490.119L356.327 480.379L351.662 476.902L349.003 474.869L357.571 468.403L364.848 473.893L377.755 464.154L373.09 460.677L369.389 457.871C374.474 452.076 377.164 446.22 377.506 440.324C377.879 431.513 372.281 422.702 360.712 413.891L359.934 413.301C352.129 407.301 343.425 403.576 334.417 402.383V402.383ZM247.772 398.438L251.924 395.287C262.208 387.533 272.056 387.194 281.469 394.27C286.974 398.337 289.959 402.22 290.472 405.656C290.986 409.093 288.404 412.956 282.697 417.226L277.675 421.008L247.772 398.438ZM330.685 461.022L295.029 434.122L300.191 430.218C305.099 426.153 310.803 424.034 316.612 424.118C321.733 424.444 327.642 427.155 334.339 432.252C340.31 436.765 343.534 440.934 344.011 444.756C344.493 448.579 341.881 452.645 336.236 456.956L330.685 461.022Z" fill="url(#paint28_linear)"/>
<path d="M377.723 464.173V477.857L364.816 487.597V473.913L377.723 464.173Z" fill="url(#paint29_linear)"/>
<path d="M356.249 480.379V494.063L343.342 503.802V490.119L356.249 480.379Z" fill="url(#paint30_linear)"/>
<path d="M307.918 505.877V519.561L294.996 509.821V496.137L307.918 505.877Z" fill="url(#paint31_linear)"/>
<path d="M189.009 416.106V429.811L201.916 439.55V425.866L189.009 416.106Z" fill="url(#paint32_linear)"/>
<path d="M216.718 428.368V414.684L201.915 425.867V439.551L216.718 428.368Z" fill="url(#paint33_linear)"/>
<path d="M216.717 414.684V428.368L300.75 491.806L309.815 484.954L216.717 414.684Z" fill="url(#paint34_linear)"/>
<path d="M293.287 339.371C287.796 339.52 282.367 337.826 277.519 334.451C273.134 331.157 270.724 326.684 270.724 321.885C270.724 317.087 273.134 312.634 277.519 309.32C286.212 302.772 300.362 302.772 309.07 309.32C313.44 312.634 315.85 317.107 315.85 321.885C315.85 326.663 313.44 331.157 309.07 334.451C304.217 337.826 298.783 339.52 293.287 339.371V339.371ZM293.287 306.636C288.095 306.511 282.963 308.113 278.375 311.292C274.565 314.179 272.466 317.941 272.466 321.885C272.466 325.83 274.565 329.612 278.39 332.499C286.601 338.7 299.974 338.7 308.2 332.499C312.009 329.612 314.124 325.85 314.124 321.885C314.124 317.92 312.009 314.179 308.2 311.292C303.611 308.11 298.48 306.508 293.287 306.636V306.636Z" fill="#91A2FA"/>
<path d="M302.633 328.941C299.743 330.862 296.546 331.864 293.303 331.864C290.061 331.864 286.864 330.862 283.973 328.941C278.811 325.057 278.811 318.774 283.973 314.85C286.864 312.929 290.061 311.927 293.303 311.927C296.546 311.927 299.743 312.929 302.633 314.85C307.78 318.734 307.78 325.057 302.633 328.941Z" fill="#97A6FC"/>
<path d="M347.758 287.746L338.505 280.772L354.258 268.877L363.526 275.851L347.758 287.746Z" fill="#91A2FA"/>
<path opacity="0.8" d="M331.119 276.726L319.457 272.233L329.58 257.248L341.242 261.741L331.119 276.726Z" fill="#91A2FA"/>
<path opacity="0.6" d="M310.781 270.098L297.859 268.553L301.342 251.941L314.264 253.486L310.781 270.098Z" fill="#91A2FA"/>
<path opacity="0.4" d="M288.73 268.553L275.792 270.098L272.309 253.486L285.231 251.941L288.73 268.553Z" fill="#91A2FA"/>
<path opacity="0.2" d="M267.116 272.233L255.454 276.726L245.346 261.721L256.993 257.248L267.116 272.233Z" fill="#91A2FA"/>
<path opacity="0.1" d="M248.067 280.772L238.814 287.746L223.062 275.851L232.314 268.877L248.067 280.772Z" fill="#91A2FA"/>
<path opacity="0.2" d="M316.876 306.554L313.626 304.093L337.138 286.343L340.388 288.803L316.876 306.554Z" fill="#91A2FA"/>
<path opacity="0.4" d="M309.428 301.796L305.338 300.21L320.438 277.844L324.527 279.43L309.428 301.796Z" fill="#91A2FA"/>
<path opacity="0.6" d="M300.425 299.011L295.884 298.462L301.078 273.676L305.618 274.225L300.425 299.011Z" fill="#91A2FA"/>
<path opacity="0.8" d="M290.706 298.462L286.165 299.011L280.956 274.225L285.497 273.676L290.706 298.462Z" fill="#91A2FA"/>
<path d="M281.236 300.21L277.146 301.796L262.047 279.43L266.152 277.844L281.236 300.21Z" fill="#91A2FA"/>
<path d="M272.962 304.093L269.712 306.554L246.201 288.803L249.451 286.343L272.962 304.093Z" fill="#91A2FA"/>
<path d="M266.665 309.705L264.581 312.796L234.959 301.389L237.042 298.299L266.665 309.705Z" fill="#91A2FA"/>
<path d="M262.979 316.517L262.263 319.933L229.422 316.009L230.137 312.572L262.979 316.517Z" fill="#91A2FA"/>
<path d="M262.263 323.837L262.979 327.273L230.137 331.197L229.422 327.761L262.263 323.837Z" fill="#91A2FA"/>
<path d="M264.581 330.994L266.665 334.084L237.042 345.471L234.959 342.38L264.581 330.994Z" fill="#91A2FA"/>
<path d="M269.712 337.236L272.962 339.697L249.451 357.447L246.201 354.987L269.712 337.236Z" fill="#91A2FA"/>
<path opacity="0.6" d="M385.638 264.262C420.206 295.737 422.134 340.733 391.47 373.753L403.91 388.739C446.221 348.927 445.288 291.609 401.157 252.509L385.638 264.262Z" fill="#97A6FC"/>
<path opacity="0.2" d="M311.994 411.248C275.436 415.579 236.716 407.182 208.555 385.873C202.406 381.305 196.669 375.848 191.45 369.607L170.349 375.097C177.137 383.825 184.776 391.345 193.068 397.463C228.693 424.342 278.593 433.899 324.341 426.152L311.994 411.248Z" fill="#91A2FA"/>
<path d="M153.057 337.074L174.158 331.584C170.426 305.314 181.933 278.048 208.555 257.918C252.655 224.634 322.552 222.722 369.638 252.164L385.11 240.493C329.456 204.626 245.735 206.537 193.114 246.268C160.319 271.013 146.977 304.887 153.057 337.074Z" fill="#97A6FC"/>
<path d="M280.365 381.704L272.108 375.483L378.128 295.433L386.385 301.654L280.365 381.704Z" fill="#97A6FC"/>
<path opacity="0.8" d="M292.089 390.569L283.832 384.327L329.922 349.538L338.179 355.78L292.089 390.569Z" fill="#97A6FC"/>
<path opacity="0.6" d="M304.639 400.044L296.382 393.802L369.747 338.436L378.004 344.658L304.639 400.044Z" fill="#97A6FC"/>
<path opacity="0.2" d="M317.001 409.357L308.728 403.135L365.843 360.029L374.1 366.251L317.001 409.357Z" fill="#97A6FC"/>
<defs>
<linearGradient id="paint0_linear" x1="515.659" y1="693.758" x2="604.248" y2="732.888" gradientUnits="userSpaceOnUse">
<stop stop-color="#BCBEFF"/>
<stop offset="0.23" stop-color="#AAADF8"/>
<stop offset="0.68" stop-color="#7C83E5"/>
<stop offset="1" stop-color="#5761D7"/>
</linearGradient>
<linearGradient id="paint1_linear" x1="505.697" y1="716.418" x2="605.768" y2="716.418" gradientUnits="userSpaceOnUse">
<stop stop-color="#E9E9FD"/>
<stop offset="0.36" stop-color="#D3D2F9"/>
<stop offset="0.71" stop-color="#C5C4F7"/>
<stop offset="1" stop-color="#C0BFF6"/>
</linearGradient>
<linearGradient id="paint2_linear" x1="52433.8" y1="12465.9" x2="54872.4" y2="15175.7" gradientUnits="userSpaceOnUse">
<stop stop-color="#BCBEFF"/>
<stop offset="0.23" stop-color="#AAADF8"/>
<stop offset="0.68" stop-color="#7C83E5"/>
<stop offset="1" stop-color="#5761D7"/>
</linearGradient>
<linearGradient id="paint3_linear" x1="51889.9" y1="18414.7" x2="57036.9" y2="18414.7" gradientUnits="userSpaceOnUse">
<stop stop-color="#E9E9FD"/>
<stop offset="0.36" stop-color="#D3D2F9"/>
<stop offset="0.71" stop-color="#C5C4F7"/>
<stop offset="1" stop-color="#C0BFF6"/>
</linearGradient>
<linearGradient id="paint4_linear" x1="366.461" y1="593.5" x2="536.789" y2="593.5" gradientUnits="userSpaceOnUse">
<stop stop-color="#5778FF"/>
<stop offset="0.1042" stop-color="#567FFF"/>
<stop offset="0.2607" stop-color="#5394FF"/>
<stop offset="0.4503" stop-color="#4DB6FF"/>
<stop offset="0.6638" stop-color="#46E4FF"/>
<stop offset="0.7742" stop-color="#42FFFF"/>
</linearGradient>
<linearGradient id="paint5_linear" x1="43110.6" y1="15491.6" x2="45549.2" y2="18201.4" gradientUnits="userSpaceOnUse">
<stop stop-color="#BCBEFF"/>
<stop offset="0.23" stop-color="#AAADF8"/>
<stop offset="0.68" stop-color="#7C83E5"/>
<stop offset="1" stop-color="#5761D7"/>
</linearGradient>
<linearGradient id="paint6_linear" x1="42591.7" y1="22815.5" x2="47742" y2="22815.5" gradientUnits="userSpaceOnUse">
<stop stop-color="#E9E9FD"/>
<stop offset="0.36" stop-color="#D3D2F9"/>
<stop offset="0.71" stop-color="#C5C4F7"/>
<stop offset="1" stop-color="#C0BFF6"/>
</linearGradient>
<linearGradient id="paint7_linear" x1="43110.6" y1="13726.8" x2="45548.5" y2="16436.1" gradientUnits="userSpaceOnUse">
<stop stop-color="#BCBEFF"/>
<stop offset="0.23" stop-color="#AAADF8"/>
<stop offset="0.68" stop-color="#7C83E5"/>
<stop offset="1" stop-color="#5761D7"/>
</linearGradient>
<linearGradient id="paint8_linear" x1="42591.7" y1="20283" x2="47742" y2="20283" gradientUnits="userSpaceOnUse">
<stop stop-color="#E9E9FD"/>
<stop offset="0.36" stop-color="#D3D2F9"/>
<stop offset="0.71" stop-color="#C5C4F7"/>
<stop offset="1" stop-color="#C0BFF6"/>
</linearGradient>
<linearGradient id="paint9_linear" x1="225.537" y1="614.721" x2="55.2083" y2="615.49" gradientUnits="userSpaceOnUse">
<stop stop-color="#5778FF"/>
<stop offset="0.1042" stop-color="#567FFF"/>
<stop offset="0.2607" stop-color="#5394FF"/>
<stop offset="0.4503" stop-color="#4DB6FF"/>
<stop offset="0.6638" stop-color="#46E4FF"/>
<stop offset="0.7742" stop-color="#42FFFF"/>
</linearGradient>
<linearGradient id="paint10_linear" x1="26648.7" y1="6753.18" x2="29086.8" y2="9460.08" gradientUnits="userSpaceOnUse">
<stop stop-color="#BCBEFF"/>
<stop offset="0.23" stop-color="#AAADF8"/>
<stop offset="0.68" stop-color="#7C83E5"/>
<stop offset="1" stop-color="#5761D7"/>
</linearGradient>
<linearGradient id="paint11_linear" x1="26111.7" y1="10336.3" x2="31252.8" y2="10336.3" gradientUnits="userSpaceOnUse">
<stop stop-color="#E9E9FD"/>
<stop offset="0.36" stop-color="#D3D2F9"/>
<stop offset="0.71" stop-color="#C5C4F7"/>
<stop offset="1" stop-color="#C0BFF6"/>
</linearGradient>
<linearGradient id="paint12_linear" x1="26648.7" y1="5165.29" x2="29092.5" y2="7872.78" gradientUnits="userSpaceOnUse">
<stop stop-color="#BCBEFF"/>
<stop offset="0.23" stop-color="#AAADF8"/>
<stop offset="0.68" stop-color="#7C83E5"/>
<stop offset="1" stop-color="#5761D7"/>
</linearGradient>
<linearGradient id="paint13_linear" x1="519.415" y1="153.115" x2="598.385" y2="187.981" gradientUnits="userSpaceOnUse">
<stop offset="0.24" stop-color="#5761D7"/>
<stop offset="0.39" stop-color="#7A82E5"/>
<stop offset="0.55" stop-color="#979CF0"/>
<stop offset="0.7" stop-color="#ACAFF8"/>
<stop offset="0.85" stop-color="#B8BAFD"/>
<stop offset="1" stop-color="#BCBEFF"/>
</linearGradient>
<linearGradient id="paint14_linear" x1="26136.6" y1="8046.83" x2="31282.7" y2="8046.83" gradientUnits="userSpaceOnUse">
<stop stop-color="#E9E9FD"/>
<stop offset="0.36" stop-color="#D3D2F9"/>
<stop offset="0.71" stop-color="#C5C4F7"/>
<stop offset="1" stop-color="#C0BFF6"/>
</linearGradient>
<linearGradient id="paint15_linear" x1="25417.3" y1="7802.47" x2="30250.2" y2="7802.47" gradientUnits="userSpaceOnUse">
<stop stop-color="#E9E9FD"/>
<stop offset="0.36" stop-color="#D3D2F9"/>
<stop offset="0.71" stop-color="#C5C4F7"/>
<stop offset="1" stop-color="#C0BFF6"/>
</linearGradient>
<linearGradient id="paint16_linear" x1="413.406" y1="407.756" x2="536.934" y2="243.983" gradientUnits="userSpaceOnUse">
<stop stop-color="#5778FF"/>
<stop offset="0.1042" stop-color="#567FFF"/>
<stop offset="0.2607" stop-color="#5394FF"/>
<stop offset="0.4503" stop-color="#4DB6FF"/>
<stop offset="0.6638" stop-color="#46E4FF"/>
<stop offset="0.7742" stop-color="#42FFFF"/>
</linearGradient>
<linearGradient id="paint17_linear" x1="100053" y1="-21190.2" x2="127187" y2="12531.8" gradientUnits="userSpaceOnUse">
<stop stop-color="#35068C"/>
<stop offset="0.02" stop-color="#40DDDA"/>
<stop offset="0.09" stop-color="#3AAEC0"/>
<stop offset="0.17" stop-color="#3484A9"/>
<stop offset="0.26" stop-color="#2F6195"/>
<stop offset="0.35" stop-color="#2B4486"/>
<stop offset="0.44" stop-color="#282E79"/>
<stop offset="0.54" stop-color="#261E71"/>
<stop offset="0.66" stop-color="#24156C"/>
<stop offset="0.82" stop-color="#24126A"/>
</linearGradient>
<linearGradient id="paint18_linear" x1="110.325" y1="474.707" x2="421.792" y2="474.707" gradientUnits="userSpaceOnUse">
<stop stop-color="#3671E9"/>
<stop offset="0.15" stop-color="#91A2FA"/>
<stop offset="0.33" stop-color="#8B97F1"/>
<stop offset="0.52" stop-color="#7366C8"/>
<stop offset="0.72" stop-color="#654CB3"/>
<stop offset="0.93" stop-color="#4127A7"/>
<stop offset="1" stop-color="#260672"/>
</linearGradient>
<linearGradient id="paint19_linear" x1="22193.6" y1="59019.3" x2="84936" y2="59019.3" gradientUnits="userSpaceOnUse">
<stop stop-color="#42E8E0"/>
<stop offset="0.15" stop-color="#43E3E0"/>
<stop offset="0.33" stop-color="#45D5DF"/>
<stop offset="0.52" stop-color="#49BDDD"/>
<stop offset="0.72" stop-color="#4E9CDB"/>
<stop offset="0.93" stop-color="#5472D8"/>
<stop offset="1" stop-color="#5761D7"/>
</linearGradient>
<linearGradient id="paint20_linear" x1="102791" y1="-29097.3" x2="129926" y2="4624.59" gradientUnits="userSpaceOnUse">
<stop stop-color="#654CB2"/>
<stop offset="0.02" stop-color="#40DDDA"/>
<stop offset="0.09" stop-color="#3AAEC0"/>
<stop offset="0.17" stop-color="#3484A9"/>
<stop offset="0.26" stop-color="#2F6195"/>
<stop offset="0.35" stop-color="#2B4486"/>
<stop offset="0.44" stop-color="#282E79"/>
<stop offset="0.54" stop-color="#261E71"/>
<stop offset="0.66" stop-color="#24156C"/>
<stop offset="0.82" stop-color="#24126A"/>
</linearGradient>
<linearGradient id="paint21_linear" x1="266.805" y1="277.885" x2="396.331" y2="772.9" gradientUnits="userSpaceOnUse">
<stop stop-color="#42E8E0"/>
<stop offset="0.02" stop-color="#40DDDA"/>
<stop offset="0.09" stop-color="#3AAEC0"/>
<stop offset="0.17" stop-color="#3484A9"/>
<stop offset="0.26" stop-color="#2F6195"/>
<stop offset="0.35" stop-color="#2B4486"/>
<stop offset="0.44" stop-color="#282E79"/>
<stop offset="0.54" stop-color="#261E71"/>
<stop offset="0.66" stop-color="#24156C"/>
<stop offset="0.82" stop-color="#24126A"/>
</linearGradient>
<linearGradient id="paint22_linear" x1="152.077" y1="387.52" x2="430.656" y2="387.52" gradientUnits="userSpaceOnUse">
<stop stop-color="#2B237C"/>
<stop offset="1" stop-color="#180D5B"/>
</linearGradient>
<linearGradient id="paint23_linear" x1="20030.7" y1="37162.7" x2="42918" y2="37162.7" gradientUnits="userSpaceOnUse">
<stop stop-color="#2B237C"/>
<stop offset="1" stop-color="#180D5B"/>
</linearGradient>
<linearGradient id="paint24_linear" x1="1073.44" y1="2859.07" x2="1080.44" y2="2936.92" gradientUnits="userSpaceOnUse">
<stop stop-color="#2B237D"/>
<stop offset="0.02" stop-color="#40DDDA"/>
<stop offset="0.09" stop-color="#3AAEC0"/>
<stop offset="0.17" stop-color="#3484A9"/>
<stop offset="0.26" stop-color="#2F6195"/>
<stop offset="0.35" stop-color="#2B4486"/>
<stop offset="0.44" stop-color="#282E79"/>
<stop offset="0.54" stop-color="#261E71"/>
<stop offset="0.66" stop-color="#24156C"/>
<stop offset="0.82" stop-color="#24126A"/>
</linearGradient>
<linearGradient id="paint25_linear" x1="1202.22" y1="2756.67" x2="1209" y2="2834.55" gradientUnits="userSpaceOnUse">
<stop stop-color="#2C247E"/>
<stop offset="0.02" stop-color="#40DDDA"/>
<stop offset="0.09" stop-color="#3AAEC0"/>
<stop offset="0.17" stop-color="#3484A9"/>
<stop offset="0.26" stop-color="#2F6195"/>
<stop offset="0.35" stop-color="#2B4486"/>
<stop offset="0.44" stop-color="#282E79"/>
<stop offset="0.54" stop-color="#261E71"/>
<stop offset="0.66" stop-color="#24156C"/>
<stop offset="0.82" stop-color="#24126A"/>
</linearGradient>
<linearGradient id="paint26_linear" x1="1503.24" y1="3363.81" x2="1516.13" y2="3473.32" gradientUnits="userSpaceOnUse">
<stop stop-color="#2B237C"/>
<stop offset="1" stop-color="#180D5B"/>
</linearGradient>
<linearGradient id="paint27_linear" x1="2507.95" y1="4457.85" x2="2592.84" y2="4468.88" gradientUnits="userSpaceOnUse">
<stop stop-color="#2B237C"/>
<stop offset="1" stop-color="#180D5B"/>
</linearGradient>
<linearGradient id="paint28_linear" x1="21012.4" y1="34392.7" x2="94409" y2="54776.2" gradientUnits="userSpaceOnUse">
<stop stop-color="#654DB3"/>
<stop offset="0.0899" stop-color="#40DDDA"/>
<stop offset="0.09" stop-color="#E9E9FE"/>
<stop offset="0.17" stop-color="#654DB3"/>
<stop offset="0.26" stop-color="#2F6195"/>
<stop offset="0.35" stop-color="#2B4486"/>
<stop offset="0.44" stop-color="#282E79"/>
<stop offset="0.54" stop-color="#261E71"/>
<stop offset="0.66" stop-color="#24156C"/>
<stop offset="0.82" stop-color="#24126A"/>
</linearGradient>
<linearGradient id="paint29_linear" x1="3183.23" y1="6813.34" x2="3323.38" y2="6829.53" gradientUnits="userSpaceOnUse">
<stop stop-color="#2B237C"/>
<stop offset="1" stop-color="#180D5B"/>
</linearGradient>
<linearGradient id="paint30_linear" x1="2983.62" y1="7016.19" x2="3123.77" y2="7032.38" gradientUnits="userSpaceOnUse">
<stop stop-color="#2B237C"/>
<stop offset="1" stop-color="#180D5B"/>
</linearGradient>
<linearGradient id="paint31_linear" x1="2524.69" y1="7209.03" x2="2697.34" y2="7229.01" gradientUnits="userSpaceOnUse">
<stop stop-color="#2B237C"/>
<stop offset="1" stop-color="#180D5B"/>
</linearGradient>
<linearGradient id="paint32_linear" x1="1594.15" y1="6044.7" x2="1635.12" y2="6424.93" gradientUnits="userSpaceOnUse">
<stop stop-color="#2C247D"/>
<stop offset="0.02" stop-color="#40DDDA"/>
<stop offset="0.09" stop-color="#3AAEC0"/>
<stop offset="0.17" stop-color="#3484A9"/>
<stop offset="0.26" stop-color="#2F6195"/>
<stop offset="0.35" stop-color="#2B4486"/>
<stop offset="0.44" stop-color="#282E79"/>
<stop offset="0.54" stop-color="#261E71"/>
<stop offset="0.66" stop-color="#24156C"/>
<stop offset="0.82" stop-color="#24126A"/>
</linearGradient>
<linearGradient id="paint33_linear" x1="1945.78" y1="6382.02" x2="1984.79" y2="6774.41" gradientUnits="userSpaceOnUse">
<stop stop-color="#2B237C"/>
<stop offset="1" stop-color="#180D5B"/>
</linearGradient>
<linearGradient id="paint34_linear" x1="14293.1" y1="18351" x2="14504.8" y2="22673" gradientUnits="userSpaceOnUse">
<stop stop-color="#91A2FA"/>
<stop offset="0.0199" stop-color="#91A2FA"/>
<stop offset="0.02" stop-color="#654DB3"/>
<stop offset="0.09" stop-color="#654DB3"/>
<stop offset="0.17" stop-color="#654DB3"/>
<stop offset="0.26" stop-color="#654CB3"/>
<stop offset="0.35" stop-color="#35068C"/>
<stop offset="0.44" stop-color="#35068C"/>
<stop offset="0.54" stop-color="#35068C"/>
<stop offset="0.66" stop-color="#35068C"/>
<stop offset="0.82" stop-color="#35068C"/>
</linearGradient>
</defs>
</svg>
