<svg width="134" height="40" viewBox="0 0 134 40" fill="none" xmlns="http://www.w3.org/2000/svg">
<path d="M19.9999 40C31.0456 40 39.9999 31.0457 39.9999 20C39.9999 8.9543 31.0456 0 19.9999 0C8.95424 0 -6.10352e-05 8.9543 -6.10352e-05 20C-6.10352e-05 31.0457 8.95424 40 19.9999 40Z" fill="white" fill-opacity="0.1"/>
<path d="M18.8424 28.0463C14.9124 27.4707 11.8964 24.0828 11.8964 19.9891C11.8964 15.8954 14.9124 12.5075 18.8424 11.9322V7.69238C12.5855 8.29084 7.69232 13.5677 7.69232 19.9891C7.69232 26.4104 12.5855 31.687 18.8424 32.2858V28.0463Z" fill="white"/>
<path d="M26.9983 12L26.8892 12.3711V23.1393L26.9983 23.2483L31.9968 20.2937L26.9983 12Z" fill="white"/>
<path d="M26.9984 12L21.9999 20.2937L26.9984 23.2483V18.0217V12Z" fill="white"/>
<path d="M26.9986 24.8742L26.9371 24.9492V28.7851L26.9986 28.9648L32.0001 21.9211L26.9986 24.8742Z" fill="white"/>
<path d="M26.9984 28.9648V24.8742L21.9999 21.9211L26.9984 28.9648Z" fill="white"/>
<path d="M26.9984 23.2482L31.9968 20.2937L26.9984 18.0217V23.2482Z" fill="white"/>
<path d="M21.9999 20.2937L26.9983 23.2482V18.0217L21.9999 20.2937Z" fill="white"/>
<path d="M68.5376 18.5959C68.1349 15.6875 65.8977 14 62.9957 14C59.576 14 57 16.4929 57 20.7244C57 24.9496 59.544 27.4489 62.9957 27.4489C66.1087 27.4489 68.1733 25.4354 68.5376 22.9361L66.147 22.9233C65.8466 24.4574 64.5938 25.3203 63.0277 25.3203C60.9055 25.3203 59.3842 23.7287 59.3842 20.7244C59.3842 17.7713 60.8928 16.1286 63.0341 16.1286C64.6257 16.1286 65.8722 17.0298 66.147 18.5959H68.5376Z" fill="white"/>
<path d="M71.4293 27.2699H73.8008V22.4759H76.217L78.7866 27.2699H81.4329L78.6012 22.0795C80.1417 21.4595 80.9535 20.1428 80.9535 18.3658C80.9535 15.8665 79.3427 14.179 76.3384 14.179H71.4293V27.2699ZM73.8008 20.5071V16.1605H75.9741C77.7447 16.1605 78.5373 16.9723 78.5373 18.3658C78.5373 19.7592 77.7447 20.5071 75.9869 20.5071H73.8008Z" fill="white"/>
<path d="M85.5375 27.2699L86.6177 24.0419H91.5396L92.6263 27.2699H95.1575L90.5425 14.179H87.6149L83.0062 27.2699H85.5375ZM87.2569 22.1371L89.0275 16.8636H89.1298L90.9004 22.1371H87.2569Z" fill="white"/>
<path d="M97.6018 27.2699H99.9732V22.8466H102.479C105.502 22.8466 107.126 21.0313 107.126 18.5128C107.126 16.0135 105.522 14.179 102.511 14.179H97.6018V27.2699ZM99.9732 20.897V16.1605H102.147C103.923 16.1605 104.71 17.1193 104.71 18.5128C104.71 19.9063 103.923 20.897 102.159 20.897H99.9732Z" fill="white"/>
<path d="M109.906 27.2699H112.277V22.8466H114.783C117.806 22.8466 119.43 21.0313 119.43 18.5128C119.43 16.0135 117.825 14.179 114.815 14.179H109.906V27.2699ZM112.277 20.897V16.1605H114.45C116.227 16.1605 117.014 17.1193 117.014 18.5128C117.014 19.9063 116.227 20.897 114.463 20.897H112.277Z" fill="white"/>
<path d="M133.907 20.7244C133.907 16.4929 131.325 14 127.892 14C124.453 14 121.877 16.4929 121.877 20.7244C121.877 24.9496 124.453 27.4489 127.892 27.4489C131.325 27.4489 133.907 24.956 133.907 20.7244ZM131.523 20.7244C131.523 23.7031 130.027 25.3203 127.892 25.3203C125.764 25.3203 124.262 23.7031 124.262 20.7244C124.262 17.7457 125.764 16.1286 127.892 16.1286C130.027 16.1286 131.523 17.7457 131.523 20.7244Z" fill="white"/>
</svg>
